<?xml version="1.0" encoding="UTF-8"?>
<svg version="1.1" xmlns="http://www.w3.org/2000/svg" width="980" height="190">
<path d="M0 0 C323.4 0 646.8 0 980 0 C980 62.7 980 125.4 980 190 C656.6 190 333.2 190 0 190 C0 127.3 0 64.6 0 0 Z " fill="#010101" transform="translate(0,0)"/>
<path d="M0 0 C17.0465625 -0.061875 17.0465625 -0.061875 34.4375 -0.125 C38.01005615 -0.14320801 41.5826123 -0.16141602 45.26342773 -0.18017578 C49.6661377 -0.18920898 49.6661377 -0.18920898 51.73500061 -0.19088745 C53.16295116 -0.1939347 54.59089695 -0.20091855 56.01881409 -0.21115112 C70.52033586 -0.30976786 82.02655386 1.13712888 93.3671875 11.07421875 C102.96423342 21.16017079 105.30352457 32.18355491 105.1484375 45.72265625 C104.68620593 55.92824272 101.54547807 64.82446881 94.609375 72.53125 C80.93199248 85.01352143 64.51740857 85.59408909 47.0625 85.25 C41.101875 85.1675 35.14125 85.085 29 85 C29 100.51 29 116.02 29 132 C19.43 132 9.86 132 0 132 C0 88.44 0 44.88 0 0 Z " fill="#FAFAFA" transform="translate(33,22)"/>
<path d="M0 0 C0.99 0.99 0.99 0.99 2 2 C2.33 -0.31 2.66 -2.62 3 -5 C11.25 -5 19.5 -5 28 -5 C28.09062443 7.30958538 28.16390226 19.6189466 28.20724869 31.92879105 C28.22806022 37.64568803 28.25625985 43.36234352 28.30175781 49.07910156 C28.34544556 54.6034251 28.36918542 60.12751738 28.37950897 65.65200043 C28.38685933 67.75218085 28.40121217 69.85234963 28.42292023 71.95243073 C28.57447619 87.23177012 28.24470547 100.3971829 17 112 C4.88504803 123.38513558 -12.51171123 122.6206207 -27.94091797 122.17480469 C-37.90911555 121.6051934 -46.6433512 117.79791598 -54 111 C-58.73929849 105.25569434 -62.17050616 99.57015792 -62 92 C-57.9170404 91.85481818 -53.83474359 91.76596653 -49.75 91.6875 C-48.59113281 91.64560547 -47.43226563 91.60371094 -46.23828125 91.56054688 C-37.65811722 91.43655607 -37.65811722 91.43655607 -34.203125 94.39453125 C-33 97 -33 97 -33 99 C-27.71859031 100.73730582 -23.0473839 101.36507624 -17.5 101.375 C-16.77941406 101.39949219 -16.05882812 101.42398438 -15.31640625 101.44921875 C-9.7642118 101.47933915 -6.4792569 100.33726813 -2 97 C1.20302165 92.39029049 1.51556028 88.05829503 1.6875 82.625 C1.72166016 81.88894531 1.75582031 81.15289062 1.79101562 80.39453125 C1.87272789 78.59686147 1.93805781 76.79845954 2 75 C1.46890625 75.40992188 0.9378125 75.81984375 0.390625 76.2421875 C-0.31578125 76.78101563 -1.0221875 77.31984375 -1.75 77.875 C-2.44609375 78.40867187 -3.1421875 78.94234375 -3.859375 79.4921875 C-11.82822769 85.10528447 -21.86303038 84.85987586 -31.26953125 83.7265625 C-43.11215391 81.16990669 -51.82961073 74.22243916 -58.3125 64.1875 C-65.4379672 51.31506199 -66.35585364 35.07397412 -62.4375 20.9375 C-57.80121781 8.3809024 -50.46476956 -0.18775487 -38.25 -5.9375 C-24.2010643 -10.53042129 -11.93297384 -8.16233155 0 0 Z " fill="#FCFCFC" transform="translate(788,64)"/>
<path d="M0 0 C8.75944024 8.18682665 11.111642 17.415562 12.1875 29.25 C3.6075 29.25 -4.9725 29.25 -13.8125 29.25 C-15.1325 25.95 -16.4525 22.65 -17.8125 19.25 C-21.460521 14.45545811 -26.0662275 11.85340937 -31.8125 10.25 C-40.41260961 9.32242493 -49.52570527 9.73940484 -56.8125 14.75 C-60.18771701 17.49313325 -60.18771701 17.49313325 -61.0859375 21.421875 C-61.11945313 22.27265625 -61.15296875 23.1234375 -61.1875 24 C-61.23648437 24.84046875 -61.28546875 25.6809375 -61.3359375 26.546875 C-60.60007894 30.3469804 -58.64441651 32.74210568 -55.8125 35.25 C-52.95133134 36.82642085 -52.95133134 36.82642085 -49.625 37.75 C-49.00133545 37.9459375 -48.3776709 38.141875 -47.73510742 38.34375 C-40.06368504 40.65013183 -32.19027237 42.29900094 -24.3527832 43.93164062 C-9.64919409 47.10934347 3.3184554 52.62686244 12.1875 65.25 C17.00753065 73.62523057 16.45755137 86.2678782 14.328125 95.46484375 C11.5633306 104.63979502 6.11516875 111.87257112 -1.8125 117.25 C-19.46685539 126.54176599 -39.99418234 127.87025688 -59.3359375 123.3671875 C-73.83761714 118.70709719 -83.09064151 111.16788805 -90.6875 98 C-93.03638801 92.25827376 -92.8125 87.5630241 -92.8125 81.25 C-83.9025 81.25 -74.9925 81.25 -65.8125 81.25 C-65.1525 83.89 -64.4925 86.53 -63.8125 89.25 C-60.48200839 95.91098321 -56.14880664 99.14075165 -49.2109375 101.484375 C-38.69270615 103.85399953 -28.43601673 103.22148478 -18.8125 98.25 C-17.8225 97.92 -16.8325 97.59 -15.8125 97.25 C-14.65728498 94.77869082 -14.65728498 94.77869082 -13.8125 92.25 C-13.4825 91.92 -13.1525 91.59 -12.8125 91.25 C-12.24690117 86.84574683 -12.46533682 83.15262427 -14.0625 79 C-21.63383111 71.42866889 -33.61588211 69.92302613 -43.6953125 67.49609375 C-60.90756552 63.34062897 -76.96385899 59.29211629 -86.8125 43.25 C-91.06315839 35.18840651 -91.24567925 24.98271698 -89.05078125 16.203125 C-88.11761705 13.76878361 -87.06980495 11.53161283 -85.8125 9.25 C-85.27625 8.239375 -84.74 7.22875 -84.1875 6.1875 C-75.71694562 -4.28923831 -65.4998034 -10.46945767 -52.11328125 -12.46484375 C-33.24290474 -14.09506563 -15.17415439 -12.57857535 0 0 Z " fill="#FBFBFB" transform="translate(567.8125,31.75)"/>
<path d="M0 0 C1.11890625 0.00580078 2.2378125 0.01160156 3.390625 0.01757812 C14.06346717 0.17490186 24.68551666 1.92027207 32.87109375 9.3671875 C41.37466563 18.73702762 40.8885762 28.55039999 40.9609375 40.640625 C40.98900732 43.25651666 41.01767179 45.872402 41.046875 48.48828125 C41.08917347 52.58704304 41.12603888 56.68576456 41.15136719 60.78466797 C41.17656199 64.75769729 41.22498395 68.73031 41.2734375 72.703125 C41.27669037 73.91494446 41.27994324 75.12676392 41.28329468 76.37530518 C41.38997157 83.8307556 42.39549313 90.3558894 44.75 97.4375 C40.6250523 97.52070345 36.50052449 97.57781263 32.375 97.625 C31.199375 97.65013672 30.02375 97.67527344 28.8125 97.70117188 C27.13027344 97.71567383 27.13027344 97.71567383 25.4140625 97.73046875 C23.85872803 97.75403442 23.85872803 97.75403442 22.27197266 97.77807617 C21.43972168 97.66568604 20.6074707 97.5532959 19.75 97.4375 C17.45986347 94.0022952 17.57157027 92.452169 17.75 88.4375 C17.07453125 88.99179688 16.3990625 89.54609375 15.703125 90.1171875 C14.81109375 90.84164062 13.9190625 91.56609375 13 92.3125 C11.67742187 93.39144531 11.67742187 93.39144531 10.328125 94.4921875 C1.56935154 101.1010802 -10.46806139 100.31826383 -20.9765625 99.12890625 C-30.02136249 97.37278529 -35.96071822 92.84522796 -41.25 85.4375 C-45.30885366 78.81138555 -45.00803442 70.94893203 -44.25 63.4375 C-42.58686868 56.70577799 -38.77597122 51.56135912 -33.25 47.4375 C-24.10635057 41.97506008 -13.91447282 40.30982817 -3.53125 38.6953125 C-2.7276001 38.56850098 -1.9239502 38.44168945 -1.09594727 38.31103516 C0.47473952 38.06743143 2.04717889 37.83479877 3.62133789 37.61474609 C7.91411742 36.96254536 11.2554616 36.20903046 14.75 33.4375 C16.00411568 30.07575863 16.00411568 30.07575863 15.75 26.4375 C13.39071194 22.35411682 11.16362317 20.84267877 6.75 19.4375 C-2.487394 18.39928704 -2.487394 18.39928704 -11 21.3125 C-15.16360104 25.13861695 -15.16360104 25.13861695 -16.25 31.4375 C-24.17 31.4375 -32.09 31.4375 -40.25 31.4375 C-39.13515062 21.40385559 -36.85261044 15.58100922 -29.625 8.625 C-20.58245239 1.53820539 -11.2625272 -0.33550753 0 0 Z " fill="#FCFCFC" transform="translate(181.25,56.5625)"/>
<path d="M0 0 C8.58 0 17.16 0 26 0 C26.33 15.84 26.66 31.68 27 48 C28.98 45.69 30.96 43.38 33 41 C37.52938348 37.63315828 42.32464793 35.34052112 48 35 C48.80050781 34.938125 49.60101562 34.87625 50.42578125 34.8125 C60.05274986 34.37676733 68.67869626 37.06705611 76.21484375 43.1640625 C82.99781691 50.13998676 86.26081267 58.66838996 86.22705078 68.29052734 C86.22734283 68.99366058 86.22763489 69.69679382 86.22793579 70.42123413 C86.22655162 72.72626442 86.21103397 75.03096426 86.1953125 77.3359375 C86.19157912 78.94161808 86.18873368 80.54730094 86.18673706 82.15298462 C86.17912621 86.36487189 86.15949979 90.57661971 86.1373291 94.78845215 C86.1168156 99.09202183 86.1077236 103.3956142 86.09765625 107.69921875 C86.07625132 116.13288341 86.04109013 124.56640825 86 133 C77.75 133 69.5 133 61 133 C60.98598145 130.2455957 60.98598145 130.2455957 60.97167969 127.43554688 C60.93604964 121.3445249 60.88218698 115.25387359 60.81609726 109.16310883 C60.77671524 105.47297987 60.74448186 101.78308622 60.72900391 98.09277344 C60.71377536 94.52630417 60.67922247 90.96048219 60.63169098 87.39430237 C60.6097991 85.38271962 60.6075316 83.37095392 60.60565186 81.35925293 C60.49062426 74.12179673 59.97118634 69.12464143 56 63 C51.68644976 58.94787705 47.26312272 58.64796924 41.5703125 58.72265625 C36.18933823 59.30327809 33.03152774 61.72416306 29.625 65.9375 C27.15716738 70.58841533 26.87280255 74.77160137 26.79467773 79.98364258 C26.77473251 81.16448929 26.75478729 82.345336 26.73423767 83.56196594 C26.70916893 85.45908577 26.70916893 85.45908577 26.68359375 87.39453125 C26.66281265 88.69702316 26.64203156 89.99951508 26.62062073 91.34147644 C26.56561816 94.79209263 26.51611341 98.24276635 26.46777344 101.69348145 C26.41739836 105.21953397 26.36184637 108.74550472 26.30664062 112.27148438 C26.1988395 119.18092629 26.09964726 126.09041641 26 133 C17.42 133 8.84 133 0 133 C0 89.11 0 45.22 0 0 Z " fill="#FCFCFC" transform="translate(828,21)"/>
<path d="M0 0 C8.25 0 16.5 0 25 0 C25.33 15.84 25.66 31.68 26 48 C28.31 45.36 30.62 42.72 33 40 C40.80461655 34.442167 48.34458032 33.3143455 57.84375 34.29296875 C67.00605685 35.90741137 73.79969726 40.06890651 80 47 C86.80182284 57.91829246 86.14529082 69.65861981 86.09765625 82.09765625 C86.09578753 83.54210867 86.09436577 84.98656173 86.09336853 86.43101501 C86.08957909 90.20386554 86.07977997 93.97667661 86.06866455 97.74951172 C86.05837296 101.61099718 86.05385443 105.47248911 86.04882812 109.33398438 C86.03815394 116.88934285 86.02058676 124.44466084 86 132 C77.42 132 68.84 132 60 132 C59.970271 129.28317993 59.970271 129.28317993 59.93994141 126.51147461 C59.87200402 120.50834691 59.79521646 114.5053863 59.71247292 108.50244808 C59.66265606 104.86503302 59.6163256 101.22764496 59.578125 97.59008789 C59.54108648 94.07566094 59.494678 90.56146824 59.44193649 87.04724312 C59.41455092 85.06273722 59.39671807 83.07810688 59.37905884 81.0934906 C59.42482315 70.33502681 59.42482315 70.33502681 54.5625 61.125 C49.85447427 57.22078354 44.8591414 57.49726556 39 58 C33.06086348 60.08969618 30.43095576 63.44584227 27.41870117 68.82250977 C25.07058511 74.46461151 25.51890045 80.5789006 25.48828125 86.58984375 C25.47033005 87.88950577 25.45237885 89.18916779 25.43388367 90.5282135 C25.38661283 93.96236184 25.35665628 97.39644554 25.33044434 100.83081055 C25.30052214 104.34371704 25.25403229 107.8564013 25.20898438 111.36914062 C25.12321262 118.2459815 25.05728573 125.12286339 25 132 C16.75 132 8.5 132 0 132 C0 88.44 0 44.88 0 0 Z " fill="#FDFDFD" transform="translate(354,22)"/>
<path d="M0 0 C8.25240909 6.30997328 13.73557205 12.64754862 16 23 C16.40497393 28.47261755 16.35046308 33.92768588 16.29296875 39.41015625 C16.28736389 40.98912653 16.28309801 42.56810208 16.28010559 44.14707947 C16.26872672 48.27516433 16.23932076 52.40292557 16.20599365 56.53088379 C16.1751415 60.75426864 16.16156809 64.97770648 16.14648438 69.20117188 C16.11444323 77.46761197 16.06173348 85.73372827 16 94 C7.42 94 -1.16 94 -10 94 C-10.0093457 92.06237793 -10.01869141 90.12475586 -10.02832031 88.12841797 C-10.06389473 81.71408871 -10.11772243 75.30011396 -10.18390274 68.8860302 C-10.22334952 64.99854766 -10.25555143 61.11129068 -10.27099609 57.22363281 C-10.28618159 53.46915424 -10.32065941 49.71529586 -10.36830902 45.9610939 C-10.38310355 44.53148933 -10.39103991 43.1017962 -10.39188385 41.67211533 C-10.39426068 39.66395427 -10.42366587 37.65588103 -10.45410156 35.64794922 C-10.46298401 34.50655487 -10.47186646 33.36516052 -10.48101807 32.18917847 C-11.11820626 28.27361465 -12.5603509 26.09453099 -15 23 C-19.98096952 19.44216463 -25.08616825 19.183328 -31 20 C-36.16306446 21.58480164 -39.22567827 24.87822006 -41.95223999 29.42114258 C-44.14124195 34.80894503 -43.7241778 40.61078509 -43.70703125 46.34375 C-43.7201665 47.72239346 -43.73547631 49.10101774 -43.75285339 50.47961426 C-43.79250427 54.08323432 -43.80288075 57.68634871 -43.80688477 61.29016113 C-43.81625422 64.97744901 -43.8536912 68.6644444 -43.88867188 72.3515625 C-43.95304472 79.56776301 -43.98385217 86.78350091 -44 94 C-52.58 94 -61.16 94 -70 94 C-70 62.65 -70 31.3 -70 -1 C-61.75 -1 -53.5 -1 -45 -1 C-44.67 2.3 -44.34 5.6 -44 9 C-42.4840625 7.39125 -42.4840625 7.39125 -40.9375 5.75 C-30.19493673 -4.92784903 -13.30620803 -7.95410845 0 0 Z " fill="#FBFBFB" transform="translate(701,60)"/>
<path d="M0 0 C8.58 0 17.16 0 26 0 C26 9.9 26 19.8 26 30 C31.28 30 36.56 30 42 30 C42 35.61 42 41.22 42 47 C36.72 47 31.44 47 26 47 C26.09341025 54.63571826 26.19947682 62.27111476 26.31738281 69.90649414 C26.35571432 72.50507767 26.39055974 75.10371502 26.421875 77.70239258 C26.46743466 81.43330143 26.52544462 85.1638384 26.5859375 88.89453125 C26.59748871 90.06023148 26.60903992 91.2259317 26.62094116 92.42695618 C26.64081085 93.50785019 26.66068054 94.5887442 26.68115234 95.70239258 C26.69447601 96.65503494 26.70779968 97.60767731 26.7215271 98.58918762 C26.84459272 101.26041348 26.84459272 101.26041348 29 104 C32.33850055 104.8071582 32.33850055 104.8071582 36.125 105.1875 C38.39375 105.455625 40.6625 105.72375 43 106 C43 112.27 43 118.54 43 125 C38.99958581 125.08133372 35.00084461 125.14066737 31 125.1875 C29.87464844 125.21263672 28.74929688 125.23777344 27.58984375 125.26367188 C19.6704387 125.33314034 14.09045557 124.51005228 7.25 120.3125 C1.72702448 114.63610849 -0.13008339 107.87902644 -0.11352539 100.12988281 C-0.11344986 98.94896057 -0.11337433 97.76803833 -0.11329651 96.55133057 C-0.10813522 95.28142273 -0.10297394 94.01151489 -0.09765625 92.703125 C-0.0962413 91.39921814 -0.09482635 90.09531128 -0.09336853 88.75189209 C-0.08955867 85.29296945 -0.07974151 81.83408909 -0.06866455 78.37518311 C-0.05841746 74.84257581 -0.05386385 71.30996164 -0.04882812 67.77734375 C-0.03811782 60.85154342 -0.02053346 53.9257781 0 47 C-4.29 47 -8.58 47 -13 47 C-13 41.39 -13 35.78 -13 30 C-8.71 30 -4.42 30 0 30 C0 20.1 0 10.2 0 0 Z " fill="#F8F8F8" transform="translate(303,29)"/>
<path d="M0 0 C0 7.59 0 15.18 0 23 C-7.125 23.75 -7.125 23.75 -9.33251953 23.95605469 C-15.27504038 24.66844802 -19.01754398 27.01754398 -23.1875 31.1875 C-28.09096553 38.79632582 -28.46090396 46.62283478 -28.51171875 55.47265625 C-28.52966995 56.6363121 -28.54762115 57.79996796 -28.56611633 58.99888611 C-28.61995617 62.68672142 -28.65403119 66.37442924 -28.6875 70.0625 C-28.72069622 72.57488743 -28.75518799 75.08725809 -28.79101562 77.59960938 C-28.87808714 83.73308862 -28.93838381 89.86600183 -29 96 C-37.58 96 -46.16 96 -55 96 C-55 64.65 -55 33.3 -55 1 C-46.75 1 -38.5 1 -30 1 C-29.67 4.96 -29.34 8.92 -29 13 C-28.154375 11.7625 -27.30875 10.525 -26.4375 9.25 C-23.37521125 5.14027757 -20.59021868 3.2068359 -16 1 C-11.53794887 -1.23102556 -4.78092876 -0.04346299 0 0 Z " fill="#FBFBFB" transform="translate(289,58)"/>
<path d="M0 0 C8.58 0 17.16 0 26 0 C26 31.35 26 62.7 26 95 C17.42 95 8.84 95 0 95 C0 63.65 0 32.3 0 0 Z " fill="#FBFBFB" transform="translate(593,59)"/>
<path d="M0 0 C5.95855375 2.82247283 10.16891381 7.64678201 12.8125 13.6875 C15.37117304 21.29082956 14.53550972 29.52024633 12 37 C9.14145976 42.20662687 5.37094929 46.31452535 0 49 C-15.29689762 50.30902547 -15.29689762 50.30902547 -21.48828125 45.5546875 C-27.15007145 39.73196786 -29.28566568 32.14718781 -29.375 24.1875 C-29.23037986 15.0378658 -26.4500121 8.4500121 -20 2 C-13.37823003 -2.05085355 -7.42922692 -1.289735 0 0 Z " fill="#030303" transform="translate(778,78)"/>
<path d="M0 0 C8.1984375 -0.0928125 8.1984375 -0.0928125 16.5625 -0.1875 C19.12946655 -0.22846802 19.12946655 -0.22846802 21.74829102 -0.27026367 C23.12515561 -0.27903653 24.50202807 -0.28667857 25.87890625 -0.29296875 C26.92637024 -0.3159906 26.92637024 -0.3159906 27.99499512 -0.33947754 C34.41232831 -0.34285212 38.84087155 1.22471661 43.8125 5.3125 C47.64046062 10.01542305 48.48483764 14.69395998 48.3046875 20.62890625 C47.64684294 25.74828638 46.07202615 30.24899199 42.05859375 33.640625 C36.52900495 37.18444986 32.02120883 38.14559534 25.48828125 38.09765625 C24.84258179 38.09664917 24.19688232 38.09564209 23.53161621 38.09460449 C21.12522601 38.08938211 18.71886118 38.07542083 16.3125 38.0625 C10.929375 38.041875 5.54625 38.02125 0 38 C0 25.46 0 12.92 0 0 Z " fill="#010101" transform="translate(62,46)"/>
<path d="M0 0 C0.92509091 19.24189084 0.92509091 19.24189084 -3.47265625 24.58984375 C-9.92649281 30.54850103 -16.39326844 31.08682705 -25 31 C-28.92574248 30.61899206 -31.37963906 29.5249208 -34.4375 26.9375 C-36.60455359 22.86343925 -36.77388667 19.51982745 -36 15 C-33.20169979 9.27620412 -27.65188615 8.0346205 -22 6 C-18.33535269 4.82942061 -14.64501295 3.77564931 -10.9375 2.75 C-9.5153418 2.3478125 -9.5153418 2.3478125 -8.06445312 1.9375 C-1.16952328 0 -1.16952328 0 0 0 Z " fill="#040404" transform="translate(198,107)"/>
<path d="M0 0 C8.58 0 17.16 0 26 0 C26 7.92 26 15.84 26 24 C17.42 24 8.84 24 0 24 C0 16.08 0 8.16 0 0 Z " fill="#F2F2F2" transform="translate(593,21)"/>
<path d="M0 0 C0.66 0.33 1.32 0.66 2 1 C-1.3 4.3 -4.6 7.6 -8 11 C-8 8 -8 8 -5.6875 5.5 C-4.800625 4.675 -3.91375 3.85 -3 3 C-2.401875 2.401875 -1.80375 1.80375 -1.1875 1.1875 C-0.795625 0.795625 -0.40375 0.40375 0 0 Z " fill="#E4E4E4" transform="translate(741,63)"/>
</svg>
